<svg xmlns="http://www.w3.org/2000/svg" width="406" height="400" viewBox="0 0 14492000 14291000" shape-rendering="geometricPrecision" text-rendering="geometricPrecision" image-rendering="optimizeQuality" fill-rule="evenodd" clip-rule="evenodd"><defs><style>.fil2{fill:#fefefe}.fil1{fill:#ef7f1a}.fil5{fill:#e31e24}.fil7{fill:#08a0f6}.fil0{fill:#fefefe;fill-rule:nonzero}.fil3{fill:#ef7f1a}.fil3,.fil4,.fil6{fill-rule:nonzero}.fil4{fill:#e31e24}.fil6{fill:#08a0f6}</style></defs><g id="Слой_x0020_1"><path class="fil0" d="M7243000 1393000c-1053000-11000-2080000 112000-3118000 357000-947000 224000-1901000 549000-2894000 968000 323000 2314000 888000 4204000 1839000 5872000 950000 1669000 2294000 3128000 4176000 4582000 1882000-1454000 3226000-2913000 4176000-4582000 952000-1668000 1516000-3558000 1839000-5872000-993000-419000-1947000-744000-2894000-968000-1038000-245000-2064000-368000-3117000-357000h-7000zM3922000 880000c1099000-260000 2193000-389000 3324000-378000 1131000-11000 2225000 118000 3324000 378000 1096000 259000 2200000 647000 3356000 1153000l306000 134000-43000 330000c-329000 2585000-934000 4679000-1991000 6534000-1058000 1856000-2561000 3459000-4685000 5058000l-267000 202000-267000-202000c-2124000-1599000-3627000-3202000-4685000-5058000C1237000 7176000 632000 5082000 303000 2497000l-42000-330000 306000-134000c1155000-506000 2260000-894000 3355000-1153000z"/><path class="fil1" d="M4103000 0c767000 0 1389000 622000 1389000 1389000 0 768000-622000 1390000-1389000 1390000-768000 0-1390000-622000-1390000-1390000C2713000 622000 3335000 0 4103000 0z"/><path class="fil2" d="M4103000 1001000c214000 0 388000 174000 388000 388000 0 215000-174000 389000-388000 389000-215000 0-389000-174000-389000-389000 0-214000 174000-388000 389000-388000z"/><path class="fil3" d="M4736000 2442000c258000 1719000 773000 3254000 1558000 4593000 751000 1282000 1752000 2392000 3015000 3322000v1286000c-1678000-1097000-2981000-2459000-3927000-4073000-880000-1503000-1447000-3215000-1717000-5128000h1071000z"/><path class="fil4" d="M9887000 1346000c-184000 2169000-738000 4071000-1686000 5689000-944000 1612000-2285000 2953000-4044000 4005000l542000 907000c1916000-1145000 3378000-2610000 4414000-4377000 1032000-1762000 1634000-3813000 1831000-6137000l-1057000-87000z"/><path class="fil5" d="M10392000 0c-767000 0-1389000 622000-1389000 1389000 0 768000 622000 1390000 1389000 1390000 768000 0 1390000-622000 1390000-1390000C11782000 622000 11160000 0 10392000 0z"/><path class="fil2" d="M10392000 1001000c-214000 0-388000 174000-388000 388000 0 215000 174000 389000 388000 389000 215000 0 389000-174000 389000-389000 0-214000-174000-388000-389000-388000z"/><path class="fil1" d="M10015000 10067000c768000 0 1390000 622000 1390000 1389000 0 768000-622000 1390000-1390000 1390000-767000 0-1389000-622000-1389000-1390000 0-767000 622000-1389000 1389000-1389000z"/><path class="fil2" d="M10015000 11068000c215000 0 389000 174000 389000 388000 0 215000-174000 389000-389000 389000-214000 0-388000-174000-388000-389000 0-214000 174000-388000 388000-388000z"/><path class="fil5" d="M4479000 10067000c-767000 0-1389000 622000-1389000 1389000 0 768000 622000 1390000 1389000 1390000 768000 0 1390000-622000 1390000-1390000 0-767000-622000-1389000-1390000-1389000z"/><path class="fil2" d="M4479000 11068000c-214000 0-388000 174000-388000 388000 0 215000 174000 389000 388000 389000 215000 0 389000-174000 389000-389000 0-214000-174000-388000-389000-388000z"/><path class="fil6" d="M1679000 6450000c916000-431000 1823000-762000 2719000-993000-119000-329000-225000-666000-321000-1011000-943000 246000-1894000 596000-2851000 1045000l453000 959000zm3763000-1217000c675000-115000 1344000-172000 2007000-167000 1869000 11000 3700000 502000 5491000 1500000l514000-924000c-1950000-1086000-3950000-1620000-5998000-1633000-776000-5000-1557000 65000-2343000 208000 97000 348000 207000 686000 329000 1016000z"/><path class="fil7" d="M1389000 4622000c768000 0 1390000 622000 1390000 1389000s-622000 1390000-1390000 1390000C622000 7401000 0 6778000 0 6011000s622000-1389000 1389000-1389000zm11714000-19000c767000 0 1389000 622000 1389000 1389000 0 768000-622000 1390000-1389000 1390000s-1390000-622000-1390000-1390000c0-767000 623000-1389000 1390000-1389000z"/><path class="fil2" d="M13103000 5604000c-215000 0-388000 174000-388000 388000 0 215000 173000 389000 388000 389000 214000 0 388000-174000 388000-389000 0-214000-174000-388000-388000-388000zm-11714000 19000c-214000 0-388000 174000-388000 388000 0 215000 174000 388000 388000 388000 215000 0 389000-173000 389000-388000 0-214000-174000-388000-389000-388000z"/></g></svg>