<?xml version="1.0" encoding="UTF-8"?>
<!DOCTYPE svg PUBLIC "-//W3C//DTD SVG 1.1//EN" "http://www.w3.org/Graphics/SVG/1.1/DTD/svg11.dtd">
<!-- Creator: CorelDRAW 2017 -->
<svg xmlns="http://www.w3.org/2000/svg" xml:space="preserve" width="35.4939mm" height="35mm" version="1.1" style="shape-rendering:geometricPrecision; text-rendering:geometricPrecision; image-rendering:optimizeQuality; fill-rule:evenodd; clip-rule:evenodd"
viewBox="0 0 22456595 22144127"
 xmlns:xlink="http://www.w3.org/1999/xlink">
 <defs>
  <style type="text/css">
   <![CDATA[
    .fil2 {fill:#FEFEFE}
    .fil1 {fill:#EF7F1A}
    .fil5 {fill:#E31E24}
    .fil7 {fill:#08A0F6}
    .fil3 {fill:#EF7F1A;fill-rule:nonzero}
    .fil4 {fill:#E31E24;fill-rule:nonzero}
    .fil0 {fill:#005CB8;fill-rule:nonzero}
    .fil6 {fill:#08A0F6;fill-rule:nonzero}
   ]]>
  </style>
 </defs>
 <g id="Слой_x0020_1">
  <metadata id="CorelCorpID_0Corel-Layer"/>
  <g id="_2020082706704">
   <path class="fil0" d="M11222873 2158281c-1631853,-16206 -3221718,173713 -4831404,553817 -1466243,346220 -2945144,850147 -4483511,1499526 499842,3585750 1374833,6513884 2848644,9099817 1473074,2584794 3555615,4845735 6471628,7099913 2916013,-2254178 4998554,-4515119 6471628,-7099913 1473811,-2585932 2348802,-5514000 2848711,-9099817 -1538367,-649379 -3017334,-1153306 -4483578,-1499526 -1609620,-380105 -3199551,-570023 -4831337,-553817l-10782 0zm-5145413 -794631c1703240,-402204 3397841,-603306 5150770,-586363 1752929,-16943 3447463,184159 5150837,586363 1697347,400798 3408422,1001827 5199388,1786145l474127 207665 -65293 512566c-510021,4004495 -1447560,7250321 -3085172,10123743 -1639420,2876569 -3968467,5360846 -7259563,7838426l-414258 311932 -414325 -311932c-3291162,-2477580 -5620209,-4961856 -7259629,-7838426 -1637679,-2873422 -2575151,-6119181 -3085172,-10123743l-65226 -512566 474060 -207665c1790967,-784318 3502042,-1385347 5199455,-1786145z"/>
   <path class="fil1" d="M6357249 0c1188933,0 2152857,963924 2152857,2152924 0,1188933 -963924,2152857 -2152857,2152857 -1189067,0 -2152990,-963924 -2152990,-2152857 0,-1189000 963924,-2152924 2152990,-2152924z"/>
   <path class="fil2" d="M6357249 1551292c332224,0 601632,269341 601632,601632 0,332290 -269408,601632 -601632,601632 -332290,0 -601632,-269341 -601632,-601632 0,-332290 269341,-601632 601632,-601632z"/>
   <path class="fil3" d="M7338182 3783973c400731,2664351 1198844,5041681 2414631,7117124 1163619,1986310 2715045,3706291 4672425,5147355l0 1993475c-2601134,-1699624 -4619588,-3810827 -6085094,-6312448 -1363516,-2327574 -2242592,-4981678 -2661672,-7945506l1659711 0z"/>
   <path class="fil4" d="M15321122 2085555c-285481,3361411 -1144668,6308697 -2613188,8815542 -1463498,2498340 -3540548,4575322 -6267111,6205903l841173 1406241c2968046,-1775028 5234546,-4045546 6838608,-6783762 1599106,-2729711 2532024,-5908368 2837862,-9509186l-1637344 -134738z"/>
   <path class="fil5" d="M16103498 0c-1188933,0 -2152857,963924 -2152857,2152924 0,1188933 963924,2152857 2152857,2152857 1189067,0 2152990,-963924 2152990,-2152857 0,-1189000 -963924,-2152924 -2152990,-2152924z"/>
   <path class="fil2" d="M16103498 1551292c-332224,0 -601565,269341 -601565,601632 0,332290 269341,601632 601565,601632 332290,0 601632,-269341 601632,-601632 0,-332290 -269341,-601632 -601632,-601632z"/>
   <path class="fil1" d="M15519613 15599170c1188933,0 2152857,963924 2152857,2152990 0,1188933 -963924,2152857 -2152857,2152857 -1189000,0 -2152924,-963924 -2152924,-2152857 0,-1189067 963924,-2152990 2152924,-2152990z"/>
   <path class="fil2" d="M15519613 17150528c332224,0 601632,269341 601632,601632 0,332224 -269408,601632 -601632,601632 -332290,0 -601632,-269408 -601632,-601632 0,-332290 269341,-601632 601632,-601632z"/>
   <path class="fil5" d="M6941134 15599170c-1188933,0 -2152857,963924 -2152857,2152990 0,1188933 963924,2152857 2152857,2152857 1189067,0 2152990,-963924 2152990,-2152857 0,-1189067 -963924,-2152990 -2152990,-2152990z"/>
   <path class="fil2" d="M6941134 17150528c-332224,0 -601632,269341 -601632,601632 0,332224 269408,601632 601632,601632 332290,0 601632,-269408 601632,-601632 0,-332290 -269341,-601632 -601632,-601632z"/>
   <path class="fil6" d="M2601603 9994162c1420103,-666590 2824737,-1180897 4213232,-1538635 -183490,-509954 -349032,-1032096 -496628,-1566225 -1461958,381712 -2934898,923074 -4418553,1619464l701949 1485396zm5831825 -1885658c1045824,-178467 2082407,-265524 3109280,-259029 2895387,18282 5732580,778559 8508029,2324493l797176 -1431621c-3021151,-1682882 -6120721,-2510461 -9294155,-2530484 -1202527,-7634 -2413157,100718 -3631556,322111 150810,539018 321107,1063838 511226,1574529z"/>
   <path class="fil7" d="M2152924 7161724c1189000,0 2152924,963924 2152924,2152924 0,1189000 -963924,2152924 -2152924,2152924 -1189000,0 -2152924,-963924 -2152924,-2152924 0,-1189000 963924,-2152924 2152924,-2152924z"/>
   <path class="fil7" d="M20303738 7132727c1188933,0 2152857,963924 2152857,2152990 0,1188933 -963924,2152857 -2152857,2152857 -1189067,0 -2152990,-963924 -2152990,-2152857 0,-1189067 963924,-2152990 2152990,-2152990z"/>
   <path class="fil2" d="M20303738 8684085c-332290,0 -601632,269341 -601632,601632 0,332224 269341,601632 601632,601632 332224,0 601632,-269408 601632,-601632 0,-332290 -269408,-601632 -601632,-601632z"/>
   <path class="fil2" d="M2152924 8713015c-332224,0 -601632,269408 -601632,601632 0,332290 269408,601632 601632,601632 332290,0 601632,-269341 601632,-601632 0,-332224 -269341,-601632 -601632,-601632z"/>
  </g>
 </g>
</svg>
