<svg width="100" height="100" xmlns="http://www.w3.org/2000/svg">
 <g>
  <title>background</title>
  <rect fill="none" id="canvas_background" height="402" width="582" y="-1" x="-1"/>
 </g>
 <g>
  <title>Layer 1</title>
  <defs>
   <rect width="100" id="SVGID_1_" height="100"/>
  </defs>
  <path stroke="null" fill="#ffffff" id="svg_2" d="m86.956189,96.554373c-0.113578,0 -0.226064,-0.022934 -0.333089,-0.06771l-33.218254,-13.872883c-0.268655,-0.112486 -0.460864,-0.350563 -0.516561,-0.635599c-0.053513,-0.286129 0.038223,-0.577718 0.247906,-0.780848c3.817964,-3.708755 5.920247,-8.678879 5.920247,-13.99629c0,-2.2519 -0.383325,-4.464484 -1.136871,-6.575504c-0.032763,-0.092828 -0.050236,-0.185656 -0.051328,-0.278484l-24.253246,-32.552076c-4.872928,4.216579 -9.483753,10.515783 -8.962824,16.656633c0.040408,0.476153 -0.312339,0.894426 -0.789585,0.932649c-0.463048,0.037131 -0.89115,-0.310155 -0.932649,-0.786308c-0.62031,-7.331234 5.183083,-14.705059 10.820477,-19.158623c6.791739,-5.366555 14.159012,-7.662139 19.225241,-5.995602c0.452127,0.148525 0.701125,0.635599 0.550416,1.091003c-0.147433,0.452127 -0.631231,0.700033 -1.089911,0.54714c-4.421893,-1.452486 -11.275881,0.748085 -17.487718,5.612276l24.769807,33.243372c6.394216,3.922805 14.979175,3.72186 21.199748,-0.542771c0.244629,-0.169275 0.558061,-0.199853 0.832176,-0.079723c0.274116,0.117946 0.46414,0.366944 0.512193,0.659625l5.545658,35.584824c0.048052,0.309063 -0.072078,0.618126 -0.318892,0.812519c-0.153985,0.119038 -0.341826,0.18238 -0.532942,0.18238m-31.716623,-15.047977l30.626713,12.791709l-5.10882,-32.75193c-6.173613,3.68036 -14.209248,3.911884 -20.571794,0.635599c0.39643,1.635958 0.598468,3.318877 0.598468,5.019269c0,5.355634 -1.960311,10.385824 -5.544566,14.305353m-38.059511,-45.484665c-0.443391,0 -0.821255,-0.340734 -0.859479,-0.790677c-0.62031,-7.331234 5.180899,-14.700691 10.820477,-19.156439c6.791739,-5.364371 14.159012,-7.662139 19.226333,-5.997786c0.452127,0.150709 0.700033,0.637783 0.550416,1.089911c-0.149617,0.454312 -0.631231,0.705493 -1.089911,0.5526c-4.460116,-1.464499 -11.370893,0.77648 -17.617677,5.711657c-5.284648,4.175079 -10.732018,11.006134 -10.169589,17.651532c0.040408,0.477246 -0.311247,0.894426 -0.788493,0.932649c-0.022934,0.006553 -0.04696,0.006553 -0.072078,0.006553m58.404149,54.921458c1.255909,-4.32142 4.840165,-7.649034 9.302465,-8.534723l2.070612,13.284244l-11.373078,-4.749521zm-38.762821,-86.633714c-11.262776,0 -28.758138,15.926022 -22.443645,27.121088l37.224059,49.493746l35.3533,14.766217l-6.030549,-38.683098l-37.225151,-49.285156c-1.56388,-2.38732 -4.020002,-3.412797 -6.878014,-3.412797m0,-3.454297c4.152145,0 7.591152,1.727694 9.698896,4.869652l37.160717,49.199973c0.340734,0.454312 0.568982,0.987254 0.657441,1.551867l6.030549,38.680913c0.193301,1.237344 -0.29705,2.480148 -1.279935,3.251167c-0.619218,0.485982 -1.371671,0.736072 -2.132862,0.736072c-0.448851,0 -0.900978,-0.087368 -1.333448,-0.265379l-35.351116,-14.768401c-0.567889,-0.235893 -1.061516,-0.618126 -1.430644,-1.111753l-37.225151,-49.491562c-0.090644,-0.123407 -0.173643,-0.247906 -0.247906,-0.381141c-2.699659,-4.784468 -2.315241,-10.6239 1.081174,-16.440398c5.100084,-8.728023 16.031955,-15.831009 24.372285,-15.831009"/>
 </g>
</svg>