<?xml version="1.0" standalone="no"?>
<!DOCTYPE svg PUBLIC "-//W3C//DTD SVG 20010904//EN"
 "http://www.w3.org/TR/2001/REC-SVG-20010904/DTD/svg10.dtd">
<svg version="1.0" xmlns="http://www.w3.org/2000/svg"
 width="512.000000pt" height="512.000000pt" viewBox="0 0 512.000000 512.000000"
 preserveAspectRatio="xMidYMid meet">
<metadata>
Created by potrace 1.15, written by Peter Selinger 2001-2017
</metadata>
<g transform="translate(0.000000,512.000000) scale(0.100000,-0.100000)"
fill="#ffffff" stroke="none">
<path d="M2360 4903 c-165 -12 -398 -57 -571 -108 -708 -212 -1303 -720 -1584
-1353 -99 -223 -170 -495 -196 -750 -17 -164 -6 -504 20 -657 92 -535 302
-947 665 -1310 383 -382 875 -618 1471 -706 172 -25 622 -27 782 -3 334 49
511 137 578 285 24 54 27 71 23 133 -8 112 -54 183 -148 225 -71 32 -141 28
-278 -18 -211 -71 -352 -94 -577 -94 -325 0 -621 68 -914 209 -514 247 -856
658 -991 1191 -147 583 -12 1205 365 1689 249 318 576 527 990 633 589 150
1235 48 1728 -275 513 -335 772 -770 817 -1372 32 -419 -91 -941 -290 -1231
-75 -110 -131 -140 -202 -107 -73 35 -68 -45 -68 1117 0 1159 2 1118 -66 1197
-49 58 -94 76 -191 76 -76 0 -86 -3 -125 -30 -50 -35 -84 -82 -99 -136 l-10
-39 -57 49 c-105 91 -216 164 -347 228 -204 100 -392 144 -609 144 -382 0
-724 -147 -1012 -434 -137 -137 -213 -241 -294 -400 -109 -215 -153 -400 -153
-636 0 -225 41 -405 138 -605 177 -367 505 -658 882 -785 135 -45 232 -61 398
-67 239 -8 448 35 660 137 120 58 193 105 301 192 l81 67 7 -52 c3 -29 6 -72
6 -97 1 -173 138 -368 321 -459 109 -54 208 -75 319 -67 135 9 234 48 345 136
329 262 560 721 630 1253 20 157 20 516 0 673 -99 753 -445 1324 -1040 1719
-373 248 -775 388 -1244 435 -95 9 -355 11 -461 3z m276 -1544 c369 -51 658
-296 758 -643 104 -358 14 -739 -233 -987 -133 -133 -294 -217 -496 -261 -87
-18 -324 -16 -407 5 -417 103 -665 419 -685 873 -19 417 171 774 494 933 163
80 366 108 569 80z"/>
</g>
</svg>
