<?xml version="1.0" standalone="no"?>
<!DOCTYPE svg PUBLIC "-//W3C//DTD SVG 20010904//EN"
 "http://www.w3.org/TR/2001/REC-SVG-20010904/DTD/svg10.dtd">
<svg version="1.0" xmlns="http://www.w3.org/2000/svg"
 width="512.000000pt" height="512.000000pt" viewBox="0 0 512.000000 512.000000"
 preserveAspectRatio="xMidYMid meet">
<metadata>
Created by potrace 1.15, written by Peter Selinger 2001-2017
</metadata>
<g transform="translate(0.000000,512.000000) scale(0.100000,-0.100000)"
fill="#000000" stroke="none">
<path d="M2700 5105 c-618 -104 -1042 -582 -1156 -1303 -24 -152 -30 -501 -10
-648 67 -509 324 -891 750 -1115 90 -48 95 -52 84 -72 -16 -31 -276 -503 -675
-1226 -190 -343 -349 -636 -355 -652 -10 -28 2 -65 26 -81 6 -4 140 -8 297 -8
260 0 287 2 301 18 8 9 95 175 193 367 99 193 243 476 322 630 79 154 211 414
295 578 l151 297 164 0 163 0 0 -926 c0 -619 3 -932 10 -945 10 -18 24 -19
260 -19 236 0 250 1 260 19 15 29 14 5035 -1 5064 -7 12 -17 25 -23 29 -20 14
-973 7 -1056 -7z m550 -1601 l0 -1167 -202 6 c-164 4 -218 9 -283 26 -342 92
-565 363 -640 781 -37 205 -30 553 15 761 79 369 272 624 544 720 88 30 147
37 364 38 l202 1 0 -1166z"/>
</g>
</svg>
